<?xml version="1.0" encoding="UTF-8"?>
<svg id="_图层_1" data-name="图层 1" xmlns="http://www.w3.org/2000/svg" viewBox="0 0 992.13 992.13">
  <defs>
    <style>
      .cls-1 {
        fill: #202a44;
      }

      .cls-2 {
        fill: #fff;
      }
    </style>
  </defs>
  <rect class="cls-2" x="1.36" width="992.13" height="992.13"/>
  <g>
    <polygon class="cls-1" points="781.4 520.44 831.86 456.45 789.73 456.45 748.79 506.74 743.02 506.74 743.02 393.19 707.54 406.58 707.54 598.92 743.02 598.92 743.02 536.63 749.6 536.63 790.49 598.92 831.86 598.92 781.4 520.44 781.4 520.44"/>
    <path class="cls-1" d="M400.64,456.45h-39.28l-28.8,92.66-29.25-92.66h-30.85l-29.25,92.66-28.8-92.66h-39.24s3.16,4.86,8.27,20.69l37.25,121.78h42.26l24.92-77.85,24.92,77.85h42.26l35.93-117.47s0,0,0,0c5.9-19.3,9.63-25,9.63-25Z"/>
    <circle class="cls-1" cx="934.55" cy="415.19" r="22"/>
    <path class="cls-1" d="M903.85,567.68v-3.26c-6.35,2.71-12.68,1.22-14.54.68-6.1-2.58-10.74-7.4-10.74-15.85v-156.05s-35.2,13.28-35.2,13.28v146.81c0,37.87,22.8,45.42,41.57,45.64,4.19.05,14.15,0,18.9-2.11,0,0,0-6.69.01-13.65h0s0-14.24,0-14.24v-1.25h0Z"/>
    <polygon class="cls-1" points="916.81 462.52 916.81 598.93 952.29 598.93 952.29 449.13 916.81 462.52"/>
    <path class="cls-1" d="M180.75,438.43s-7.25-23.11-31.9-36.36c-24.66-13.25-55.95-10.84-77.07,1.77-21.12,12.61-28.45,32.32-26.68,50.95,1.77,18.64,13.29,36.59,43.81,48.12,26.45,9.99,44.05,12.21,54.6,25.2,13.37,16.45-2.61,38.04-29.89,35.57-24.95-2.25-36.2-20.9-42.04-33.23l-36.01,12.56s6.09,22.12,31.12,40.62c23.29,17.22,58.57,19.63,83.61,8.61,26.16-11.51,38.07-32.81,35.34-56.15-2.53-21.67-16.06-38.56-41.13-49.4-31.16-13.47-63.76-16.09-61.43-39.18,2.41-23.96,50.48-26.93,61.96,3.44l35.71-12.51Z"/>
    <path class="cls-1" d="M467.12,449.75c-43.78,1.05-71.53,33.72-71.53,74.59s29.83,74.59,77.84,74.59c31.48,0,53.58-18.23,62.37-34.2l-22.78-14.61-3.76-2.47c-3.22,5.35-8.37,9.46-10.64,10.94-6.13,3.71-14.41,7.07-25.22,7.39-20.94.63-40.01-10.84-43.07-31.29,0,0,0,0,0,0h108s0,0,.01-.01c.49-2.94,1.33-8.93,1.3-17.33-.13-37.71-30-68.63-72.52-67.6ZM430.42,506.03s5.34-26.28,37.45-26.28,37.45,26.28,37.45,26.28h-74.9Z"/>
    <path class="cls-1" d="M623.24,449.75c-43.78,1.05-71.53,33.72-71.53,74.59s29.83,74.59,77.84,74.59c31.48,0,53.58-18.23,62.37-34.2l-22.78-14.61-3.76-2.47c-3.22,5.35-8.37,9.46-10.64,10.94-6.13,3.71-14.41,7.07-25.22,7.39-20.94.63-40.01-10.84-43.07-31.29,0,0,0,0,0,0h108s0,0,.01-.01c.49-2.94,1.33-8.93,1.3-17.33-.13-37.71-30-68.63-72.52-67.6ZM586.54,506.03s5.34-26.28,37.45-26.28,37.45,26.28,37.45,26.28h-74.9Z"/>
  </g>
</svg>