<?xml version="1.0" encoding="UTF-8"?>
<svg id="_图层_1" data-name="图层 1" xmlns="http://www.w3.org/2000/svg" viewBox="0 0 2114.56 472.37">
  <defs>
    <style>
      .cls-1 {
        fill: #fff;
      }
    </style>
  </defs>
  <polygon class="cls-1" points="1712.42 292.17 1828.28 145.25 1731.54 145.25 1637.55 260.7 1624.29 260.7 1624.29 0 1542.83 30.73 1542.83 472.36 1624.29 472.36 1624.29 329.33 1639.41 329.33 1733.28 472.36 1828.28 472.36 1712.42 292.17 1712.42 292.17"/>
  <path class="cls-1" d="M838.18,145.25h-90.18l-66.12,212.76-67.15-212.76h-70.82l-67.15,212.76-66.12-212.76h-90.09s7.26,11.16,18.99,47.5l85.53,279.61h97.04l57.22-178.75,57.22,178.75h97.04l82.5-269.7s0,0,0,0c13.56-44.32,22.11-57.41,22.11-57.41Z"/>
  <circle class="cls-1" cx="2064.04" cy="50.52" r="50.52"/>
  <path class="cls-1" d="M1993.56,400.63v-7.49c-14.57,6.23-29.1,2.81-33.39,1.55-14.01-5.92-24.67-16.99-24.67-36.38V0s-80.82,30.48-80.82,30.48v337.08c0,86.95,52.35,104.29,95.45,104.79,9.62.11,32.48,0,43.39-4.84,0,0,.02-15.35.02-31.34h.01s0-32.69,0-32.69v-2.87h0Z"/>
  <polygon class="cls-1" points="2023.31 159.19 2023.31 472.37 2104.77 472.37 2104.77 128.45 2023.31 159.19"/>
  <path class="cls-1" d="M333.32,103.87s-16.64-53.07-73.25-83.49c-56.61-30.42-128.47-24.89-176.96,4.06C34.62,53.4,17.8,98.64,21.86,141.44c4.05,42.79,30.52,84.01,100.59,110.48,60.74,22.94,101.13,28.02,125.37,57.86,30.7,37.77-5.98,87.33-68.62,81.67-57.29-5.17-83.11-48-96.52-76.31L0,343.98s13.99,50.8,71.45,93.26c53.48,39.53,134.47,45.06,191.96,19.76,60.05-26.42,87.41-75.33,81.14-128.93-5.82-49.75-36.87-88.52-94.43-113.41-71.55-30.94-146.39-36.95-141.05-89.96,5.54-55.02,115.9-61.84,142.27,7.9l81.98-28.73Z"/>
  <path class="cls-1" d="M990.82,129.86c-100.51,2.42-164.22,77.41-164.22,171.25s68.49,171.25,178.73,171.25c72.29,0,123.02-41.85,143.19-78.52l-52.31-33.53-8.62-5.66c-7.4,12.29-19.22,21.71-24.43,25.11-14.08,8.51-33.08,16.22-57.9,16.96-48.07,1.44-91.86-24.89-98.89-71.84,0,0,0-.01.01-.01h247.96s.02-.01.02-.02c1.12-6.74,3.06-20.51,2.99-39.78-.29-86.59-68.87-157.57-166.52-155.22ZM906.56,259.07s12.26-60.33,85.99-60.33,85.99,60.33,85.99,60.33h-171.98Z"/>
  <path class="cls-1" d="M1349.27,129.86c-100.51,2.42-164.22,77.41-164.22,171.25s68.49,171.25,178.73,171.25c72.29,0,123.02-41.85,143.19-78.52l-52.31-33.53-8.62-5.66c-7.4,12.29-19.22,21.71-24.43,25.11-14.08,8.51-33.08,16.22-57.9,16.96-48.07,1.44-91.86-24.89-98.89-71.84,0,0,0-.01.01-.01h247.96s.02-.01.02-.02c1.12-6.74,3.06-20.51,2.99-39.78-.29-86.59-68.87-157.57-166.52-155.22ZM1265.01,259.07s12.26-60.33,85.99-60.33,85.99,60.33,85.99,60.33h-171.98Z"/>
</svg>