<?xml version="1.0" encoding="UTF-8"?>
<svg id="_图层_1" data-name="图层 1" xmlns="http://www.w3.org/2000/svg" viewBox="0 0 1929.93 380.31">
  <defs>
    <style>
      .cls-1 {
        fill: #202a44;
      }
    </style>
  </defs>
  <g>
    <polygon class="cls-1" points="873.42 216.1 927.23 147.86 882.3 147.86 838.64 201.48 832.48 201.48 832.48 80.39 794.65 94.67 794.65 299.8 832.48 299.8 832.48 233.36 839.5 233.36 883.11 299.8 927.23 299.8 873.42 216.1 873.42 216.1"/>
    <path class="cls-1" d="M467.34,147.86h-41.89l-30.71,98.82-31.19-98.82h-32.9l-31.19,98.82-30.71-98.82h-41.85s3.37,5.18,8.82,22.06l39.73,129.88h45.07l26.58-83.03,26.58,83.03h45.07l38.32-125.27s0,0,0,0c6.3-20.58,10.27-26.66,10.27-26.66Z"/>
    <circle class="cls-1" cx="1036.74" cy="103.86" r="23.47"/>
    <path class="cls-1" d="M1004.01,266.48v-3.48c-6.77,2.89-13.52,1.3-15.51.72-6.51-2.75-11.46-7.89-11.46-16.9V80.4s-37.54,14.16-37.54,14.16v156.57c0,40.39,24.32,48.44,44.33,48.68,4.47.05,15.09,0,20.15-2.25,0,0,0-7.13.01-14.56h0s0-15.18,0-15.18v-1.34h0Z"/>
    <polygon class="cls-1" points="1017.82 154.33 1017.82 299.8 1055.66 299.8 1055.66 140.05 1017.82 154.33"/>
    <path class="cls-1" d="M232.84,128.64s-7.73-24.65-34.02-38.78c-26.29-14.13-59.67-11.56-82.2,1.89-22.52,13.45-30.34,34.46-28.45,54.34,1.88,19.88,14.18,39.02,46.72,51.32,28.21,10.66,46.97,13.02,58.23,26.87,14.26,17.55-2.78,40.56-31.87,37.94-26.61-2.4-38.6-22.29-44.84-35.44l-38.4,13.4s6.5,23.59,33.19,43.32c24.84,18.36,62.46,20.93,89.17,9.18,27.89-12.27,40.6-34.99,37.69-59.89-2.7-23.11-17.12-41.12-43.86-52.68-33.23-14.37-68-17.16-65.52-41.79,2.57-25.55,53.83-28.72,66.08,3.67l38.08-13.34Z"/>
    <path class="cls-1" d="M538.24,140.71c-46.69,1.12-76.28,35.96-76.28,79.55s31.81,79.55,83.02,79.55c33.58,0,57.14-19.44,66.51-36.47l-24.3-15.58-4-2.63c-3.44,5.71-8.93,10.08-11.35,11.67-6.54,3.95-15.37,7.54-26.9,7.88-22.33.67-42.67-11.56-45.93-33.37,0,0,0,0,0,0h115.17s.01,0,.01-.01c.52-3.13,1.42-9.53,1.39-18.48-.13-40.22-31.99-73.19-77.34-72.1ZM499.11,200.73s5.69-28.02,39.94-28.02,39.94,28.02,39.94,28.02h-79.88Z"/>
    <path class="cls-1" d="M704.74,140.71c-46.69,1.12-76.28,35.96-76.28,79.55s31.81,79.55,83.02,79.55c33.58,0,57.14-19.44,66.51-36.47l-24.3-15.58-4-2.63c-3.44,5.71-8.93,10.08-11.35,11.67-6.54,3.95-15.37,7.54-26.9,7.88-22.33.67-42.67-11.56-45.93-33.37,0,0,0,0,0,0h115.17s.01,0,.01-.01c.52-3.13,1.42-9.53,1.39-18.48-.13-40.22-31.99-73.19-77.34-72.1ZM665.6,200.73s5.69-28.02,39.94-28.02,39.94,28.02,39.94,28.02h-79.88Z"/>
  </g>
  <g>
    <path class="cls-1" d="M1768.53,219.39v-20.94c0-.12-.1-.22-.22-.22h-28.32v-58.26h-21.41v58.26h-28.75v21.38h28.75v80.31h21.41v-80.31h28.32c.12,0,.22-.1.22-.22Z"/>
    <rect class="cls-1" x="1769.1" y="162.76" width="81.69" height="21.41"/>
    <rect class="cls-1" x="1793.28" y="145.91" width="33.33" height="21.41" transform="translate(1966.56 -1653.33) rotate(90)"/>
    <path class="cls-1" d="M1274.45,139.98h-138.89v95.12h138.89v-95.12ZM1193.24,213.68h-36.27v-15.45h36.27v15.45ZM1193.24,176.83h-36.27v-15.45h36.27v15.45ZM1253.05,213.68h-38.4v-15.45h38.4v15.45ZM1253.05,176.83h-38.4v-15.45h38.4v15.45Z"/>
    <g>
      <polygon class="cls-1" points="1121.79 299.92 1143.94 299.92 1149.34 241 1128.24 241 1121.79 299.92"/>
      <path class="cls-1" d="M1226.03,241l1.66,37.47s-.02.02-.04.04h-49.24s-.04-.02-.04-.04v-37.47h-21.41v58.92h95.03l-4.39-58.92h-21.57Z"/>
      <polygon class="cls-1" points="1258.98 241 1263.52 299.92 1285.71 299.92 1281.04 241 1258.98 241"/>
    </g>
    <polygon class="cls-1" points="1354.3 188.63 1335.45 188.63 1353.25 139.98 1330.11 139.98 1303.56 210.04 1321.55 210.04 1304.97 255.7 1322.53 255.7 1308.23 299.92 1332.2 299.92 1354.75 234.29 1337.72 234.29 1354.3 188.63"/>
    <path class="cls-1" d="M1438.89,139.98h-21.41v20.82h-22.57l7.23-20.82h-23.33l-30.59,88.02h19.33v71.92h99.17v-21.41h-27.83v-17.83h27.83v-21.41h-27.83v-17.83h27.83v-21.41h-27.83v-17.83h27.83v-21.41h-27.83v-20.82ZM1417.48,278.51h-28.53v-17.83h28.53v17.83ZM1417.48,239.27h-28.53v-17.83h28.53v17.83ZM1417.48,200.03h-28.53v-17.83h28.53v17.83Z"/>
    <path class="cls-1" d="M1579.6,247.78v-21.41h-30.34v-5.89h29.63v-80.51h-80.83v80.51h29.79v5.89h-30.34v21.41h30.34v52.13h21.41v-52.13h30.34ZM1549.26,199.08v-10.69h10.78v10.69h-10.78ZM1560.04,172.08h-10.78v-10.69h10.78v10.69ZM1527.85,161.38v10.69h-10.93v-10.69h10.93ZM1516.92,199.08v-10.69h10.93v10.69h-10.93Z"/>
    <polygon class="cls-1" points="1608.26 171.08 1584.32 171.08 1584.32 254.46 1584.32 254.46 1605.73 254.46 1605.73 254.46 1605.73 192.49 1639.99 192.49 1639.99 254.46 1639.99 254.46 1661.4 254.46 1661.4 254.46 1661.4 171.08 1661.4 171.08 1631.69 171.08 1635.03 161.38 1661.4 161.38 1661.4 161.38 1661.4 139.98 1661.4 139.98 1584.32 139.95 1584.32 161.35 1584.32 161.36 1611.6 161.38 1608.26 171.08"/>
    <polygon class="cls-1" points="1496.8 299.92 1518.34 299.92 1524.07 253.32 1503.19 253.32 1496.8 299.92"/>
    <polygon class="cls-1" points="1552.87 253.32 1558.6 299.92 1580.14 299.92 1573.75 253.32 1552.87 253.32"/>
    <polygon class="cls-1" points="1742.93 225.49 1748.72 299.92 1770.27 299.92 1763.82 225.49 1742.93 225.49"/>
    <polygon class="cls-1" points="1716.09 225.49 1710.3 299.92 1688.76 299.92 1695.21 225.49 1716.09 225.49"/>
    <g>
      <polygon class="cls-1" points="1715.55 192.33 1710.85 139.98 1689.3 139.98 1694.67 192.33 1715.55 192.33"/>
      <polygon class="cls-1" points="1742.93 192.33 1747.64 139.98 1769.19 139.98 1763.82 192.33 1742.93 192.33"/>
    </g>
    <polygon class="cls-1" points="1633.56 254.46 1612.16 255.87 1612.16 202.21 1633.56 202.21 1633.56 254.46"/>
    <g>
      <polygon class="cls-1" points="1612.7 250.27 1583.45 299.92 1605.97 299.92 1634.11 254.46 1612.7 250.27"/>
      <polygon class="cls-1" points="1633.02 250.27 1662.27 299.92 1639.75 299.92 1611.61 254.46 1633.02 250.27"/>
    </g>
    <polygon class="cls-1" points="1851.91 278.51 1851.91 278.32 1819.07 278.32 1850.65 190.15 1826.74 190.15 1810.28 242.02 1792.74 190.15 1769.24 190.15 1800.16 278.32 1763.82 278.32 1763.82 299.92 1764.53 299.92 1851.91 299.92 1851.92 299.92 1851.92 278.51 1851.91 278.51"/>
  </g>
</svg>